<svg width="20" height="20" viewBox="0 0 20 20" fill="currentColor" xmlns="http://www.w3.org/2000/svg">
<path d="M18.1839 19.032L11.9378 12.8307C11.8136 12.7215 11.7516 12.5877 11.7516 12.4291C11.7516 12.2705 11.8136 12.1292 11.9378 12.005C12.0619 11.8809 12.1995 11.8188 12.3506 11.8188C12.5017 11.8188 12.6393 11.8809 12.7634 12.005L18.9871 18.2288C19.0963 18.338 19.1509 18.4756 19.1509 18.6416C19.1509 18.8076 19.0888 18.9452 18.9647 19.0544C18.8555 19.1636 18.7254 19.2145 18.5743 19.207C18.4233 19.1995 18.2931 19.1412 18.1839 19.032ZM2.08616 16.7525C1.60305 15.8999 1.2381 15.0148 0.991306 14.0972C0.744498 13.1796 0.621094 12.2489 0.621094 11.305C0.621094 9.92299 0.876866 8.58357 1.38841 7.28678C1.89995 5.98999 2.67923 4.82557 3.72624 3.79352C4.77324 2.74649 5.94627 1.96609 7.24531 1.45231C8.54435 0.93853 9.86994 0.681641 11.2221 0.681641C12.1808 0.681641 13.1153 0.806162 14.0255 1.05521C14.9356 1.30425 15.8147 1.67033 16.6628 2.15345C17.0113 2.36285 17.205 2.66274 17.2439 3.05312C17.2828 3.44351 17.1496 3.79127 16.8445 4.09642L4.02913 16.9118C3.72399 17.2169 3.37511 17.3538 2.98249 17.3224C2.58986 17.291 2.29109 17.101 2.08616 16.7525ZM3.107 16.1691L5.22047 14.0557C4.90936 13.6175 4.60161 13.1545 4.29723 12.6669C3.99285 12.1793 3.72399 11.6618 3.49066 11.1144C3.25732 10.5669 3.07185 9.98583 2.93424 9.37109C2.79664 8.75634 2.71961 8.11766 2.70316 7.45507C1.99569 8.87152 1.69692 10.3441 1.80684 11.8727C1.91677 13.4013 2.35016 14.8335 3.107 16.1691ZM6.10446 13.23L13.1628 6.11338C12.3266 5.47171 11.4745 4.96653 10.6062 4.59785C9.73794 4.22914 8.91567 3.98309 8.13938 3.8597C7.3631 3.7363 6.65974 3.73817 6.02929 3.8653C5.39885 3.99245 4.91086 4.22877 4.56533 4.57428C4.21982 4.92428 3.98351 5.4145 3.85638 6.04495C3.72923 6.6754 3.72362 7.37989 3.83955 8.15843C3.95546 8.93694 4.19776 9.76295 4.56647 10.6365C4.93515 11.51 5.44782 12.3745 6.10446 13.23ZM16.1602 3.17428C14.8006 2.37257 13.3527 1.92684 11.8166 1.83711C10.2805 1.74735 8.80424 2.0435 7.38779 2.72555C8.06984 2.72705 8.71824 2.80408 9.33297 2.95664C9.94771 3.10922 10.5288 3.30105 11.0762 3.53213C11.6237 3.76322 12.1438 4.03096 12.6367 4.33535C13.1295 4.63971 13.595 4.95717 14.0333 5.28773L16.1602 3.17428Z" fill="currentColor"/>
</svg>
