<svg width="24" height="20" viewBox="0 0 24 20" fill="currentColor" xmlns="http://www.w3.org/2000/svg">
<path d="M1.27627 19.3327C1.0093 19.3327 0.785504 19.2424 0.604884 19.0618C0.424284 18.8812 0.333984 18.6574 0.333984 18.3904V1.6083C0.333984 1.34133 0.424284 1.11754 0.604884 0.936916C0.785504 0.756316 1.0093 0.666016 1.27627 0.666016H13.4814C13.7484 0.666016 13.9722 0.756316 14.1528 0.936916C14.3334 1.11754 14.4237 1.34133 14.4237 1.6083V18.3904C14.4237 18.6574 14.3334 18.8812 14.1528 19.0618C13.9722 19.2424 13.7484 19.3327 13.4814 19.3327H9.30833V14.7558H5.44938V19.3327H1.27627ZM1.50065 18.166H4.28271V13.5891H10.475V18.166H13.2571V1.83268H1.50065V18.166ZM4.28271 10.807H5.98783V9.10192H4.28271V10.807ZM4.28271 6.31986H5.98783V4.61474H4.28271V6.31986ZM8.76989 10.807H10.475V9.10192H8.76989V10.807ZM8.76989 6.31986H10.475V4.61474H8.76989V6.31986ZM16.9366 9.99856C16.9366 9.83305 16.9925 9.69459 17.1043 9.58317C17.2161 9.47173 17.3546 9.41602 17.5199 9.41602H21.4708L20.017 7.96217C19.9078 7.85299 19.8495 7.7165 19.842 7.5527C19.8345 7.38892 19.8928 7.24889 20.0169 7.13261C20.1306 7.02604 20.268 6.97275 20.4291 6.97275C20.5901 6.97275 20.7227 7.02734 20.827 7.13652L23.0301 9.33974C23.2186 9.5282 23.3128 9.74807 23.3128 9.99935C23.3128 10.2506 23.2186 10.4705 23.0301 10.659L20.827 12.8622C20.7215 12.9664 20.5897 13.0208 20.4315 13.0256C20.2733 13.0303 20.1374 12.9758 20.0237 12.8622C19.8996 12.753 19.8401 12.6165 19.8453 12.4527C19.8506 12.2889 19.9078 12.1502 20.017 12.0365L21.4708 10.5827H17.5199C17.3546 10.5827 17.2161 10.5267 17.1043 10.4147C16.9925 10.3028 16.9366 10.1641 16.9366 9.99856Z" fill="currentColor"/>
</svg>
