<svg width="18" height="21" viewBox="0 0 18 21" fill="currentColor" xmlns="http://www.w3.org/2000/svg">
<path d="M4.06475 18V19.6154C4.06475 19.8148 3.99469 19.9843 3.85457 20.1239C3.71446 20.2635 3.54432 20.3333 3.34416 20.3333C3.14399 20.3333 2.97474 20.2635 2.83639 20.1239C2.69803 19.9843 2.62884 19.8148 2.62884 19.6154V17.5378C2.24894 17.3733 1.85482 17.0229 1.44648 16.4867C1.03815 15.9505 0.833984 15.3331 0.833984 14.6346V4C0.833984 2.78958 1.48896 1.90365 2.79891 1.34219C4.10887 0.780729 6.17587 0.5 8.99992 0.5C11.9261 0.5 14.0188 0.769792 15.2782 1.30938C16.5376 1.84896 17.1673 2.74583 17.1673 4V14.6346C17.1673 15.3331 16.9632 15.9505 16.5548 16.4867C16.1465 17.0229 15.7524 17.3733 15.3725 17.5378V19.6154C15.3725 19.8148 15.3024 19.9843 15.1623 20.1239C15.0222 20.2635 14.852 20.3333 14.6519 20.3333C14.4517 20.3333 14.2824 20.2635 14.1441 20.1239C14.0057 19.9843 13.9366 19.8148 13.9366 19.6154V18H4.06475ZM2.00065 9.83333H16.0007V4.62822H2.00065V9.83333ZM4.9226 15.2179C5.28553 15.2179 5.59226 15.0909 5.84281 14.8369C6.09333 14.5828 6.21859 14.2743 6.21859 13.9114C6.21859 13.5485 6.09157 13.2417 5.83753 12.9912C5.58347 12.7407 5.27497 12.6154 4.91204 12.6154C4.54911 12.6154 4.24237 12.7424 3.99183 12.9965C3.74131 13.2505 3.61605 13.559 3.61605 13.9219C3.61605 14.2849 3.74307 14.5916 3.99711 14.8422C4.25117 15.0927 4.55967 15.2179 4.9226 15.2179ZM13.0893 15.2179C13.4522 15.2179 13.7589 15.0909 14.0095 14.8369C14.26 14.5828 14.3853 14.2743 14.3853 13.9114C14.3853 13.5485 14.2582 13.2417 14.0042 12.9912C13.7501 12.7407 13.4416 12.6154 13.0787 12.6154C12.7158 12.6154 12.409 12.7424 12.1585 12.9965C11.908 13.2505 11.7827 13.559 11.7827 13.9219C11.7827 14.2849 11.9097 14.5916 12.1638 14.8422C12.4178 15.0927 12.7263 15.2179 13.0893 15.2179ZM2.12181 3.46153H15.9064C15.7045 2.86174 15.0812 2.41265 14.0364 2.11426C12.9916 1.81586 11.3175 1.66667 9.01413 1.66667C6.72415 1.66667 5.05679 1.81811 4.01204 2.121C2.96727 2.42388 2.3372 2.87073 2.12181 3.46153ZM4.33398 16.8333H13.6673C14.309 16.8333 14.8583 16.6049 15.3152 16.1479C15.7722 15.691 16.0007 15.1417 16.0007 14.5V11H2.00065V14.5C2.00065 15.1417 2.22912 15.691 2.68607 16.1479C3.14301 16.6049 3.69232 16.8333 4.33398 16.8333Z" fill="currentColor"/>
</svg>
