<svg width="17" height="16" viewBox="0 0 17 16" fill="currentColor" xmlns="http://www.w3.org/2000/svg">
<path d="M15.3722 16C13.6863 16 11.9581 15.5779 10.1876 14.7337C8.41704 13.8894 6.76896 12.7045 5.24333 11.1789C3.7305 9.6532 2.55197 8.00832 1.70776 6.24422C0.863523 4.48012 0.441406 2.75512 0.441406 1.06922C0.441406 0.769225 0.541406 0.516016 0.741406 0.309599C0.941406 0.103199 1.19141 0 1.49141 0H3.96448C4.23628 0 4.47346 0.0855746 4.67603 0.256725C4.8786 0.427875 5.01577 0.647425 5.08756 0.915375L5.58371 3.3C5.62987 3.57948 5.62154 3.82372 5.55871 4.0327C5.49589 4.24167 5.385 4.41282 5.22603 4.54615L3.03178 6.5923C3.44205 7.33718 3.89558 8.02917 4.39238 8.66827C4.88916 9.30737 5.41896 9.91283 5.98178 10.4846C6.56256 11.0654 7.18756 11.6055 7.85678 12.1048C8.52601 12.6042 9.26063 13.0756 10.0606 13.5192L12.1991 11.3423C12.3619 11.1667 12.5449 11.051 12.7481 10.9952C12.9513 10.9394 13.176 10.9282 13.4222 10.9615L15.526 11.3923C15.7978 11.459 16.0183 11.5958 16.1876 11.8029C16.3568 12.0099 16.4414 12.2474 16.4414 12.5154V14.95C16.4414 15.25 16.3382 15.5 16.1318 15.7C15.9254 15.9 15.6722 16 15.3722 16Z" fill="currentColor"/>
</svg>
