<svg width="38" height="30" viewBox="0 0 38 30" fill="currentColor" xmlns="http://www.w3.org/2000/svg">
<path d="M37.2812 4.06251V25.9376C37.2812 26.8724 36.9681 27.653 36.3418 28.2793C35.7155 28.9056 34.9349 29.2188 34 29.2188H3.99998C3.0651 29.2188 2.28451 28.9056 1.6582 28.2793C1.0319 27.653 0.71875 26.8724 0.71875 25.9376V4.06251C0.71875 3.12763 1.0319 2.34704 1.6582 1.72073C2.28451 1.09443 3.0651 0.781281 3.99998 0.781281H34C34.9349 0.781281 35.7155 1.09443 36.3418 1.72073C36.9681 2.34704 37.2812 3.12763 37.2812 4.06251ZM2.75 8.51562H35.25V4.06251C35.25 3.75004 35.1198 3.46358 34.8594 3.20314C34.5989 2.94273 34.3125 2.81253 34 2.81253H3.99998C3.68751 2.81253 3.40105 2.94273 3.14061 3.20314C2.8802 3.46358 2.75 3.75004 2.75 4.06251V8.51562ZM2.75 13.3594V25.9376C2.75 26.25 2.8802 26.5365 3.14061 26.7969C3.40105 27.0573 3.68751 27.1875 3.99998 27.1875H34C34.3125 27.1875 34.5989 27.0573 34.8594 26.7969C35.1198 26.5365 35.25 26.25 35.25 25.9376V13.3594H2.75Z" fill="currentColor"/>
</svg>
