<svg width="19" height="20" viewBox="0 0 19 20" fill="currentColor" xmlns="http://www.w3.org/2000/svg">
<path d="M8.84978 18.9999V6.74992H1.81903C1.59468 6.74992 1.45077 6.64448 1.3873 6.4336C1.32384 6.2227 1.38249 6.05699 1.56325 5.93647L9.08245 0.669197C9.24765 0.555097 9.42036 0.498047 9.60058 0.498047C9.78079 0.498047 9.95295 0.555097 10.1171 0.669197L17.6363 5.93647C17.817 6.05699 17.8757 6.2227 17.8122 6.4336C17.7487 6.64448 17.6048 6.74992 17.3805 6.74992H10.3497V18.9999C10.3497 19.2124 10.2778 19.3906 10.134 19.5343C9.99021 19.6781 9.81201 19.7499 9.59943 19.7499C9.38683 19.7499 9.20874 19.6781 9.06515 19.5343C8.92157 19.3906 8.84978 19.2124 8.84978 18.9999ZM0.849778 18.9999V14.5384L0.224777 11.0845C0.187594 10.8717 0.225336 10.6843 0.338002 10.5223C0.450669 10.3604 0.613411 10.2607 0.826228 10.2233C1.02653 10.186 1.21033 10.2264 1.37763 10.3447C1.54493 10.463 1.64717 10.6218 1.68435 10.8211L2.2882 14.0576H5.4459C5.70199 14.0576 5.91664 14.1443 6.08988 14.3175C6.26311 14.4907 6.34973 14.7054 6.34973 14.9615V18.9999C6.34973 19.2124 6.27783 19.3906 6.13403 19.5343C5.99021 19.6781 5.81201 19.7499 5.59943 19.7499C5.38683 19.7499 5.20874 19.6781 5.06515 19.5343C4.92157 19.3906 4.84978 19.2125 4.84978 19V15.5576H2.34973V18.9999C2.34973 19.2124 2.27783 19.3906 2.13403 19.5343C1.99021 19.6781 1.81201 19.7499 1.59943 19.7499C1.38683 19.7499 1.20874 19.6781 1.06515 19.5343C0.921569 19.3906 0.849778 19.2124 0.849778 18.9999ZM12.8498 18.9999V14.9615C12.8498 14.7054 12.9364 14.4907 13.1096 14.3175C13.2829 14.1443 13.4975 14.0576 13.7536 14.0576H16.9113L17.5152 10.8211C17.5519 10.6218 17.6499 10.463 17.8091 10.3447C17.9682 10.2264 18.1549 10.186 18.3691 10.2233C18.5833 10.2607 18.747 10.3604 18.8604 10.5223C18.9738 10.6843 19.0119 10.8717 18.9747 11.0845L18.3497 14.5384V18.9999C18.3497 19.2124 18.2778 19.3906 18.134 19.5343C17.9902 19.6781 17.812 19.7499 17.5994 19.7499C17.3868 19.7499 17.2087 19.6781 17.0652 19.5343C16.9216 19.3906 16.8498 19.2125 16.8498 19V15.5576H14.3497V18.9999C14.3497 19.2124 14.2778 19.3906 14.134 19.5343C13.9902 19.6781 13.812 19.7499 13.5994 19.7499C13.3868 19.7499 13.2087 19.6781 13.0652 19.5343C12.9216 19.3906 12.8498 19.2124 12.8498 18.9999ZM5.16123 5.24997H14.0383L9.59975 2.14222L5.16123 5.24997Z" fill="currentColor"/>
</svg>
