<svg width="12" height="20" viewBox="0 0 12 20" fill="currentColor" xmlns="http://www.w3.org/2000/svg">
<path d="M6.44141 19.5C4.82859 19.5 3.50871 19.2689 2.48178 18.8067C1.45486 18.3446 0.941406 17.7423 0.941406 17C0.941406 16.609 1.10936 16.2513 1.44526 15.9269C1.78116 15.6026 2.2459 15.3218 2.83948 15.0846L3.12603 16.0423C2.7786 16.1898 2.50744 16.3452 2.31256 16.5086C2.11769 16.6721 1.99782 16.8359 1.95296 17C2.06706 17.4461 2.55103 17.8077 3.40488 18.0846C4.25871 18.3615 5.27089 18.5 6.44141 18.5C7.59909 18.5 8.60902 18.3615 9.47121 18.0846C10.3334 17.8077 10.8215 17.4461 10.9356 17C10.8908 16.8359 10.7709 16.6753 10.576 16.5183C10.3811 16.3612 10.11 16.2026 9.76256 16.0423L10.0683 15.0846C10.6619 15.3218 11.1225 15.6026 11.4501 15.9269C11.7776 16.2513 11.9414 16.609 11.9414 17C11.9414 17.7423 11.4279 18.3446 10.401 18.8067C9.3741 19.2689 8.05422 19.5 6.44141 19.5ZM6.44141 14.3634C6.74141 13.775 7.09653 13.1747 7.50678 12.5625C7.91705 11.9503 8.33821 11.3654 8.77026 10.8077C9.41256 9.96923 9.92666 9.20673 10.3126 8.5202C10.6985 7.83365 10.8914 6.97692 10.8914 5.95C10.8914 4.7218 10.4568 3.67308 9.58756 2.80385C8.71832 1.93462 7.66961 1.5 6.44141 1.5C5.21321 1.5 4.16449 1.93462 3.29526 2.80385C2.42602 3.67308 1.99141 4.7218 1.99141 5.95C1.99141 6.97692 2.18756 7.83365 2.57988 8.5202C2.97218 9.20673 3.48307 9.96923 4.11256 10.8077C4.54461 11.3654 4.96576 11.9503 5.37603 12.5625C5.78628 13.1747 6.14141 13.775 6.44141 14.3634ZM6.44141 15.8846C6.29654 15.8846 6.16192 15.8305 6.03756 15.7221C5.91321 15.6138 5.8177 15.4808 5.75103 15.3231C5.31641 14.268 4.82666 13.3821 4.28178 12.6654C3.73691 11.9487 3.21512 11.2622 2.71641 10.6058C2.23436 9.94936 1.82634 9.26795 1.49236 8.56155C1.15839 7.85513 0.991406 6.98462 0.991406 5.95C0.991406 4.42435 1.51833 3.13461 2.57218 2.08078C3.62601 1.02693 4.91576 0.5 6.44141 0.5C7.96706 0.5 9.2568 1.02693 10.3106 2.08078C11.3645 3.13461 11.8914 4.42435 11.8914 5.95C11.8914 6.98462 11.7286 7.85513 11.403 8.56155C11.0773 9.26795 10.6651 9.94936 10.1664 10.6058C9.68436 11.2622 9.16673 11.9487 8.61353 12.6654C8.06032 13.3821 7.5664 14.268 7.13178 15.3231C7.06511 15.4808 6.96961 15.6138 6.84526 15.7221C6.72089 15.8305 6.58627 15.8846 6.44141 15.8846ZM6.44141 7.47885C6.87089 7.47885 7.23307 7.33142 7.52796 7.03655C7.82282 6.74167 7.97026 6.37948 7.97026 5.95C7.97026 5.52052 7.82282 5.15833 7.52796 4.86345C7.23307 4.56858 6.87089 4.42115 6.44141 4.42115C6.01192 4.42115 5.64974 4.56858 5.35486 4.86345C5.05999 5.15833 4.91256 5.52052 4.91256 5.95C4.91256 6.37948 5.05999 6.74167 5.35486 7.03655C5.64974 7.33142 6.01192 7.47885 6.44141 7.47885Z" fill="currentColor"/>
</svg>
