<svg width="18" height="18" viewBox="0 0 18 18" fill="currentColor" xmlns="http://www.w3.org/2000/svg">
<path d="M4.64154 10.8461V13.8461C4.64154 14.1038 4.72776 14.3189 4.90019 14.4913C5.07263 14.6637 5.28769 14.75 5.54537 14.75H6.23767C6.49535 14.75 6.71041 14.6637 6.88284 14.4913C7.05528 14.3189 7.14149 14.1038 7.14149 13.8461V10.8461H7.23767C7.43382 10.7333 7.63349 10.6163 7.83669 10.4952C8.03989 10.374 8.14149 10.1897 8.14149 9.94228V8.30765C8.14149 7.82177 7.9713 7.40864 7.63092 7.06825C7.29054 6.72787 6.8774 6.55768 6.39152 6.55768H5.39152C4.90562 6.55768 4.49248 6.72787 4.15209 7.06825C3.81173 7.40864 3.64154 7.82177 3.64154 8.30765V9.94228C3.64154 10.1897 3.74314 10.374 3.94634 10.4952C4.14954 10.6163 4.34922 10.7333 4.54537 10.8461H4.64154ZM5.89152 5.59613C6.21587 5.59613 6.48926 5.48491 6.71169 5.26248C6.93413 5.04004 7.04534 4.76665 7.04534 4.4423C7.04534 4.11793 6.93413 3.84453 6.71169 3.6221C6.48926 3.39967 6.21587 3.28845 5.89152 3.28845C5.56715 3.28845 5.29375 3.39967 5.07132 3.6221C4.84889 3.84453 4.73767 4.11793 4.73767 4.4423C4.73767 4.76665 4.84889 5.04004 5.07132 5.26248C5.29375 5.48491 5.56715 5.59613 5.89152 5.59613ZM11.2434 7.74995H13.9626C14.1178 7.74995 14.2299 7.68489 14.2992 7.55478C14.3684 7.42464 14.3658 7.29548 14.2915 7.16728L12.9222 4.9827C12.8479 4.85448 12.7415 4.79038 12.603 4.79038C12.4646 4.79038 12.3582 4.85448 12.2838 4.9827L10.9146 7.16728C10.8402 7.29548 10.8377 7.42464 10.9069 7.55478C10.9761 7.68489 11.0883 7.74995 11.2434 7.74995ZM12.9222 13.0173L14.2915 10.8327C14.3658 10.7045 14.3684 10.5753 14.2992 10.4452C14.2299 10.3151 14.1178 10.25 13.9626 10.25H11.2434C11.0883 10.25 10.9761 10.3151 10.9069 10.4452C10.8377 10.5753 10.8402 10.7045 10.9146 10.8327L12.2838 13.0173C12.3582 13.1455 12.4646 13.2096 12.603 13.2096C12.7415 13.2096 12.8479 13.1455 12.9222 13.0173ZM2.50692 17.5C2.00179 17.5 1.57422 17.325 1.22422 16.975C0.874219 16.625 0.699219 16.1974 0.699219 15.6923V2.3077C0.699219 1.80257 0.874219 1.375 1.22422 1.025C1.57422 0.675 2.00179 0.5 2.50692 0.5H15.8915C16.3966 0.5 16.8242 0.675 17.1742 1.025C17.5242 1.375 17.6992 1.80257 17.6992 2.3077V15.6923C17.6992 16.1974 17.5242 16.625 17.1742 16.975C16.8242 17.325 16.3966 17.5 15.8915 17.5H2.50692ZM2.50692 16H15.8915C15.9812 16 16.0549 15.9711 16.1126 15.9134C16.1703 15.8557 16.1992 15.782 16.1992 15.6923V2.3077C16.1992 2.21795 16.1703 2.14423 16.1126 2.08653C16.0549 2.02883 15.9812 1.99998 15.8915 1.99998H2.50692C2.41717 1.99998 2.34344 2.02883 2.28574 2.08653C2.22804 2.14423 2.19919 2.21795 2.19919 2.3077V15.6923C2.19919 15.782 2.22804 15.8557 2.28574 15.9134C2.34344 15.9711 2.41717 16 2.50692 16Z" fill="currentColor"/>
</svg>
