<svg width="41" height="37" viewBox="0 0 41 37" fill="currentColor" xmlns="http://www.w3.org/2000/svg">
<path d="M19.4039 34.3844C19.6654 34.3844 19.9334 34.3254 20.2077 34.2075C20.4821 34.0895 20.7039 33.9459 20.8731 33.7767L36.4654 18.1844C36.968 17.6818 37.3558 17.1677 37.6289 16.6421C37.9019 16.1165 38.0385 15.5395 38.0385 14.9113C38.0385 14.2754 37.9019 13.6581 37.6289 13.0594C37.3558 12.4607 36.968 11.9139 36.4654 11.419L28.9654 3.91903C28.4705 3.41647 27.9622 3.04787 27.4404 2.81323C26.9186 2.57863 26.3398 2.46133 25.7039 2.46133C25.0757 2.46133 24.4923 2.57863 23.9539 2.81323C23.4154 3.04787 22.9077 3.41647 22.4308 3.91903L20.6885 5.66133L24.3885 9.37283C24.7859 9.7626 25.0821 10.2062 25.277 10.7036C25.4718 11.2011 25.5693 11.7062 25.5693 12.219C25.5693 13.26 25.2289 14.1209 24.5481 14.8017C23.8674 15.4825 23.0065 15.8229 21.9654 15.8229C21.4526 15.8229 20.9519 15.7447 20.4635 15.5882C19.975 15.4318 19.5359 15.1588 19.1462 14.769L16.2039 11.8382C15.9731 11.6075 15.6782 11.4921 15.3193 11.4921C14.9603 11.4921 14.6654 11.6075 14.4346 11.8382L6.68463 19.5882C6.48206 19.7908 6.33014 20.0209 6.22888 20.2786C6.12757 20.5363 6.07692 20.7959 6.07692 21.0575C6.07692 21.5293 6.22821 21.9184 6.53078 22.2248C6.83334 22.5312 7.22053 22.6844 7.69233 22.6844C7.95386 22.6844 8.22181 22.6254 8.49618 22.5075C8.77054 22.3895 8.99234 22.2459 9.16157 22.0767L14.7923 16.4459C14.9795 16.2588 15.2071 16.1568 15.475 16.1402C15.743 16.1235 15.9872 16.2254 16.2077 16.4459C16.4205 16.6588 16.5269 16.8947 16.5269 17.1536C16.5269 17.4126 16.4205 17.6485 16.2077 17.8613L10.5885 23.4921C10.3859 23.6947 10.234 23.9248 10.1327 24.1825C10.0314 24.4402 9.98077 24.6998 9.98077 24.9613C9.98077 25.4075 10.1385 25.7882 10.4539 26.1036C10.7692 26.419 11.15 26.5767 11.5962 26.5767C11.8577 26.5767 12.1257 26.5177 12.4 26.3998C12.6744 26.2818 12.8962 26.1382 13.0654 25.969L19.1577 19.8882C19.3449 19.7011 19.5725 19.5991 19.8404 19.5825C20.1084 19.5658 20.3526 19.6677 20.5731 19.8882C20.7859 20.1011 20.8923 20.337 20.8923 20.5959C20.8923 20.8549 20.7859 21.0908 20.5731 21.3036L14.4923 27.3959C14.3154 27.5652 14.1699 27.787 14.0558 28.0613C13.9417 28.3357 13.8846 28.6037 13.8846 28.8652C13.8846 29.3113 14.0423 29.6921 14.3577 30.0075C14.6731 30.3228 15.0539 30.4805 15.5 30.4805C15.7616 30.4805 16.0212 30.4299 16.2789 30.3286C16.5366 30.2273 16.7667 30.0754 16.9693 29.8729L23.0616 23.7921C23.2487 23.6049 23.4763 23.503 23.7443 23.4863C24.0122 23.4697 24.2564 23.5716 24.4769 23.7921C24.6898 24.0049 24.7962 24.2408 24.7962 24.4998C24.7962 24.7588 24.6898 24.9946 24.4769 25.2075L18.3846 31.2998C18.1821 31.5023 18.0301 31.7453 17.9289 32.0286C17.8276 32.312 17.777 32.5716 17.777 32.8075C17.777 33.2793 17.943 33.66 18.275 33.9498C18.6071 34.2395 18.9834 34.3844 19.4039 34.3844ZM19.3923 36.3844C18.3641 36.3844 17.484 36.0082 16.7519 35.2556C16.0199 34.503 15.6987 33.5742 15.7885 32.469C14.6551 32.4818 13.7116 32.1434 12.9577 31.4536C12.2039 30.7639 11.8462 29.8011 11.8846 28.5652C10.6487 28.578 9.67501 28.2248 8.96348 27.5056C8.25194 26.7864 7.92823 25.8383 7.99232 24.6613C6.87949 24.6741 5.94873 24.3613 5.20003 23.7229C4.45129 23.0844 4.07692 22.1959 4.07692 21.0575C4.07692 20.5447 4.17629 20.0312 4.37503 19.5171C4.57373 19.003 4.86796 18.5511 5.25773 18.1613L13.0462 10.3728C13.659 9.76003 14.4148 9.45364 15.3135 9.45364C16.2122 9.45364 16.968 9.76003 17.5808 10.3728L20.4846 13.2767C20.6539 13.4536 20.8628 13.5991 21.1116 13.7132C21.3603 13.8273 21.641 13.8844 21.9539 13.8844C22.3821 13.8844 22.7603 13.735 23.0885 13.4363C23.4167 13.1376 23.5808 12.7485 23.5808 12.269C23.5808 11.9562 23.5237 11.6754 23.4096 11.4267C23.2955 11.178 23.15 10.969 22.9731 10.7998L16.0923 3.91903C15.5975 3.41647 15.0827 3.04787 14.5481 2.81323C14.0135 2.57863 13.4282 2.46133 12.7923 2.46133C12.1641 2.46133 11.5936 2.57863 11.0808 2.81323C10.568 3.04787 10.0603 3.41647 9.55772 3.91903L3.46927 10.019C3.04104 10.4472 2.69488 10.9575 2.43078 11.5498C2.16668 12.1421 2.02694 12.7536 2.01158 13.3844C1.99618 13.8357 2.03463 14.2697 2.12693 14.6863C2.21926 15.103 2.36543 15.4947 2.56543 15.8613L1.05003 17.3767C0.714125 16.8408 0.451292 16.2235 0.261525 15.5248C0.071792 14.826 -0.0153748 14.1126 2.52022e-05 13.3844C0.0153919 12.4767 0.197442 11.6068 0.546175 10.7748C0.894875 9.94272 1.39359 9.20233 2.04233 8.55363L8.09233 2.50363C8.78976 1.81387 9.52757 1.30103 10.3058 0.965134C11.084 0.629267 11.9257 0.461334 12.8308 0.461334C13.7359 0.461334 14.5712 0.629267 15.3366 0.965134C16.1019 1.30103 16.8295 1.81387 17.5193 2.50363L19.2616 4.24593L21.0039 2.50363C21.7013 1.81387 22.4327 1.30103 23.1981 0.965134C23.9635 0.629267 24.7987 0.461334 25.7039 0.461334C26.609 0.461334 27.4507 0.629267 28.2289 0.965134C29.0071 1.30103 29.741 1.81387 30.4308 2.50363L37.8808 9.95364C38.5706 10.6434 39.1026 11.4177 39.477 12.2767C39.8513 13.1357 40.0385 14.0177 40.0385 14.9229C40.0385 15.828 39.8513 16.6632 39.477 17.4286C39.1026 18.194 38.5706 18.9216 37.8808 19.6113L22.2885 35.1921C21.8731 35.6075 21.4212 35.9101 20.9327 36.0998C20.4443 36.2896 19.9308 36.3844 19.3923 36.3844Z" fill="currentColor"/>
</svg>
