<svg width="18" height="18" viewBox="0 0 18 18" fill="currentColor" xmlns="http://www.w3.org/2000/svg">
<path d="M8.98006 17.5C6.96981 17.5 5.19802 16.8865 3.66468 15.6596C2.13135 14.4326 1.14867 12.8628 0.716632 10.95C0.662782 10.7512 0.695149 10.5686 0.813732 10.4019C0.932315 10.2352 1.10025 10.1384 1.31753 10.1115C1.52203 10.0846 1.70537 10.125 1.86756 10.2327C2.02972 10.3404 2.14286 10.4987 2.20696 10.7077C2.58774 12.2525 3.40794 13.5208 4.66756 14.5125C5.92716 15.5041 7.36466 16 8.98006 16C10.9301 16 12.5842 15.3208 13.9426 13.9625C15.3009 12.6041 15.9801 10.95 15.9801 8.99998C15.9801 7.04998 15.3009 5.39581 13.9426 4.03748C12.5842 2.67914 10.9301 1.99998 8.98006 1.99998C7.88776 1.99998 6.86404 2.2426 5.90891 2.72785C4.95379 3.2131 4.13136 3.88073 3.44161 4.73073H5.30701C5.51949 4.73073 5.69761 4.80263 5.84136 4.94645C5.98511 5.09025 6.05698 5.26845 6.05698 5.48105C6.05698 5.69363 5.98511 5.87172 5.84136 6.0153C5.69761 6.1589 5.51949 6.2307 5.30701 6.2307H1.88396C1.62787 6.2307 1.41322 6.14408 1.23998 5.97083C1.06675 5.79759 0.980132 5.58293 0.980132 5.32685V1.90383C0.980132 1.69133 1.05203 1.5132 1.19583 1.36945C1.33965 1.2257 1.51785 1.15383 1.73043 1.15383C1.94303 1.15383 2.12112 1.2257 2.26471 1.36945C2.40829 1.5132 2.48008 1.69133 2.48008 1.90383V3.52308C3.29162 2.56539 4.26341 1.82213 5.39546 1.29328C6.52751 0.764426 7.72237 0.5 8.98006 0.5C10.16 0.5 11.2653 0.723084 12.2958 1.16925C13.3263 1.6154 14.2249 2.2218 14.9916 2.98845C15.7582 3.75512 16.3646 4.65365 16.8108 5.68405C17.2569 6.71445 17.48 7.81958 17.48 8.99943C17.48 10.1793 17.2569 11.2846 16.8108 12.3154C16.3646 13.3461 15.7582 14.2448 14.9916 15.0115C14.2249 15.7782 13.3263 16.3846 12.2958 16.8307C11.2653 17.2769 10.16 17.5 8.98006 17.5ZM9.75888 8.69613L12.5089 11.4462C12.6474 11.5846 12.7182 11.7587 12.7214 11.9683C12.7246 12.1779 12.6538 12.3551 12.5089 12.5C12.364 12.6448 12.1884 12.7173 11.982 12.7173C11.7756 12.7173 11.5999 12.6448 11.4551 12.5L8.53006 9.57498C8.43647 9.48138 8.36789 9.37939 8.32431 9.26903C8.28071 9.15866 8.25891 9.04462 8.25891 8.9269V4.74995C8.25891 4.53747 8.33082 4.35935 8.47463 4.2156C8.61845 4.07185 8.79665 3.99998 9.00923 3.99998C9.22183 3.99998 9.39992 4.07185 9.54351 4.2156C9.68709 4.35935 9.75888 4.53747 9.75888 4.74995V8.69613Z" fill="currentColor"/>
</svg>
