<svg width="15" height="15" viewBox="0 0 15 15" fill="transparent" xmlns="http://www.w3.org/2000/svg">
<path d="M1.22531 6.64438C1.22531 4.10943 1.22531 2.84162 2.01316 2.05445C2.80033 1.2666 4.06814 1.2666 6.60309 1.2666H7.94753C10.4825 1.2666 11.7503 1.2666 12.5375 2.05445C13.3253 2.84162 13.3253 4.10943 13.3253 6.64438V7.98882C13.3253 10.5238 13.3253 11.7916 12.5375 12.5788C11.7503 13.3666 10.4825 13.3666 7.94753 13.3666H6.60309C4.06814 13.3666 2.80033 13.3666 2.01316 12.5788C1.22531 11.7916 1.22531 10.5238 1.22531 7.98882V6.64438Z" stroke="currentColor" stroke-width="1.65"/>
<path d="M10.3003 5.29987C10.8572 5.29987 11.3087 4.84842 11.3087 4.29154C11.3087 3.73465 10.8572 3.2832 10.3003 3.2832C9.74344 3.2832 9.29199 3.73465 9.29199 4.29154C9.29199 4.84842 9.74344 5.29987 10.3003 5.29987Z" fill="currentColor"/>
<path d="M7.27536 9.33326C8.38914 9.33326 9.29203 8.43037 9.29203 7.31659C9.29203 6.20282 8.38914 5.29993 7.27536 5.29993C6.16159 5.29993 5.2587 6.20282 5.2587 7.31659C5.2587 8.43037 6.16159 9.33326 7.27536 9.33326Z" stroke="currentColor" stroke-width="1.65"/>
</svg>
