<svg width="36" height="28" viewBox="0 0 36 28" fill="currentColor" xmlns="http://www.w3.org/2000/svg">
<path d="M18 16.8002L20 18.3694C20.3154 18.6181 20.6385 18.6265 20.9693 18.3944C21.3 18.1624 21.4077 17.8515 21.2923 17.4617L20.4769 14.8925L22.9039 13.0232C23.1936 12.7745 23.2808 12.4701 23.1654 12.1098C23.05 11.7496 22.7974 11.5694 22.4077 11.5694H19.6616L18.7577 8.83478C18.6423 8.44505 18.3897 8.25018 18 8.25018C17.6103 8.25018 17.3577 8.44505 17.2423 8.83478L16.3385 11.5694H13.5423C13.1526 11.5694 12.9019 11.7496 12.7904 12.1098C12.6788 12.4701 12.7679 12.7745 13.0577 13.0232L15.423 14.8925L14.6077 17.5502C14.4923 17.94 14.5897 18.2509 14.9 18.4829C15.2103 18.715 15.5269 18.7066 15.85 18.4579L18 16.8002ZM3.23075 28.0002C2.33588 28.0002 1.5737 27.6854 0.9442 27.056C0.314733 26.4265 0 25.6643 0 24.7694V20.5579C0 20.2681 0.0717833 20.0027 0.21535 19.7617C0.35895 19.5207 0.5628 19.3412 0.8269 19.2232C1.78077 18.6745 2.54808 17.9476 3.12885 17.0425C3.70962 16.1374 4 15.1233 4 14.0002C4 12.8771 3.70962 11.863 3.12885 10.9579C2.54808 10.0527 1.78077 9.32583 0.8269 8.77713C0.5628 8.65917 0.35895 8.47967 0.21535 8.23863C0.0717833 7.99763 0 7.73225 0 7.44248V3.23093C0 2.33607 0.314733 1.57388 0.9442 0.944382C1.5737 0.314915 2.33588 0.000183105 3.23075 0.000183105H32.7693C33.6641 0.000183105 34.4263 0.314915 35.0558 0.944382C35.6853 1.57388 36 2.33607 36 3.23093V7.44248C36 7.73225 35.9282 7.99763 35.7846 8.23863C35.641 8.47967 35.4372 8.65917 35.1731 8.77713C34.2192 9.32583 33.4519 10.0527 32.8712 10.9579C32.2904 11.863 32 12.8771 32 14.0002C32 15.1233 32.2904 16.1374 32.8712 17.0425C33.4519 17.9476 34.2192 18.6745 35.1731 19.2232C35.4372 19.3412 35.641 19.5207 35.7846 19.7617C35.9282 20.0027 36 20.2681 36 20.5579V24.7694C36 25.6643 35.6853 26.4265 35.0558 27.056C34.4263 27.6854 33.6641 28.0002 32.7693 28.0002H3.23075ZM3.23075 26.0002H32.7693C33.1282 26.0002 33.4231 25.8848 33.6539 25.654C33.8846 25.4233 34 25.1284 34 24.7694V20.9002C32.7667 20.1668 31.7917 19.1919 31.075 17.9752C30.3583 16.7585 30 15.4335 30 14.0002C30 12.5668 30.3583 11.2418 31.075 10.0252C31.7917 8.80852 32.7667 7.83352 34 7.10018V3.23093C34 2.87197 33.8846 2.5771 33.6539 2.34633C33.4231 2.11557 33.1282 2.00018 32.7693 2.00018H3.23075C2.87178 2.00018 2.57692 2.11557 2.34615 2.34633C2.11538 2.5771 2 2.87197 2 3.23093V7.10018C3.23333 7.83352 4.20833 8.80852 4.925 10.0252C5.64167 11.2418 6 12.5668 6 14.0002C6 15.4335 5.64167 16.7585 4.925 17.9752C4.20833 19.1919 3.23333 20.1668 2 20.9002V24.7694C2 25.1284 2.11538 25.4233 2.34615 25.654C2.57692 25.8848 2.87178 26.0002 3.23075 26.0002Z" fill="currentColor"/>
</svg>
