<svg width="19" height="14" viewBox="0 0 19 14" fill="currentColor" xmlns="http://www.w3.org/2000/svg">
<path d="M2.05678 14C1.59653 14 1.21224 13.8458 0.903906 13.5375C0.595573 13.2292 0.441406 12.8449 0.441406 12.3846V1.61537C0.441406 1.15512 0.595573 0.770833 0.903906 0.4625C1.21224 0.154167 1.59653 0 2.05678 0H16.826C17.2863 0 17.6706 0.154167 17.9789 0.4625C18.2872 0.770833 18.4414 1.15512 18.4414 1.61537V12.3846C18.4414 12.8449 18.2872 13.2292 17.9789 13.5375C17.6706 13.8458 17.2863 14 16.826 14H2.05678ZM17.4414 1.88463L9.88948 6.82885C9.81896 6.86603 9.74749 6.89713 9.67506 6.92213C9.60262 6.94713 9.52474 6.95963 9.44141 6.95963C9.35807 6.95963 9.28019 6.94713 9.20776 6.92213C9.13532 6.89713 9.06385 6.86603 8.99333 6.82885L1.44141 1.88463V12.3846C1.44141 12.5641 1.4991 12.7115 1.61448 12.8269C1.72986 12.9423 1.8773 13 2.05678 13H16.826C17.0055 13 17.1529 12.9423 17.2683 12.8269C17.3837 12.7115 17.4414 12.5641 17.4414 12.3846V1.88463ZM9.44141 6L17.1337 1H1.74911L9.44141 6ZM1.44141 2.09615V1.28463V1.31922V1.26828V2.09615Z" fill="currentColor"/>
</svg>
