<svg width="20" height="19" viewBox="0 0 20 19" fill="currentColor" xmlns="http://www.w3.org/2000/svg">
<path d="M2.30257 8.47539C1.78497 8.47539 1.34701 8.29669 0.988672 7.93929C0.630339 7.58191 0.451172 7.14441 0.451172 6.62679C0.451172 6.10919 0.629872 5.67122 0.987272 5.31289C1.34466 4.95456 1.78216 4.77539 2.29977 4.77539C2.81737 4.77539 3.25534 4.95409 3.61367 5.31149C3.97201 5.66887 4.15117 6.10637 4.15117 6.62399C4.15117 7.14159 3.97247 7.57956 3.61507 7.93789C3.25769 8.29622 2.82019 8.47539 2.30257 8.47539ZM6.80257 4.47539C6.28497 4.47539 5.847 4.29669 5.48867 3.93929C5.13034 3.58191 4.95117 3.14441 4.95117 2.62679C4.95117 2.10919 5.12987 1.67122 5.48727 1.31289C5.84466 0.954557 6.28216 0.775391 6.79977 0.775391C7.31737 0.775391 7.75534 0.95409 8.11367 1.31149C8.472 1.66887 8.65117 2.10637 8.65117 2.62399C8.65117 3.14159 8.47247 3.57956 8.11507 3.93789C7.75769 4.29622 7.32019 4.47539 6.80257 4.47539ZM12.8026 4.47539C12.285 4.47539 11.847 4.29669 11.4887 3.93929C11.1303 3.58191 10.9512 3.14441 10.9512 2.62679C10.9512 2.10919 11.1299 1.67122 11.4873 1.31289C11.8447 0.954557 12.2822 0.775391 12.7998 0.775391C13.3174 0.775391 13.7553 0.95409 14.1137 1.31149C14.472 1.66887 14.6512 2.10637 14.6512 2.62399C14.6512 3.14159 14.4725 3.57956 14.1151 3.93789C13.7577 4.29622 13.3202 4.47539 12.8026 4.47539ZM17.3026 8.47539C16.785 8.47539 16.347 8.29669 15.9887 7.93929C15.6303 7.58191 15.4512 7.14441 15.4512 6.62679C15.4512 6.10919 15.6299 5.67122 15.9873 5.31289C16.3447 4.95456 16.7822 4.77539 17.2998 4.77539C17.8174 4.77539 18.2553 4.95409 18.6137 5.31149C18.972 5.66887 19.1512 6.10637 19.1512 6.62399C19.1512 7.14159 18.9725 7.57956 18.6151 7.93789C18.2577 8.29622 17.8202 8.47539 17.3026 8.47539ZM4.45117 18.4754C3.86784 18.4754 3.38867 18.2523 3.01367 17.8062C2.63867 17.3601 2.45117 16.8332 2.45117 16.2254C2.45117 15.4254 2.73451 14.7462 3.30117 14.1879C3.86784 13.6296 4.41784 13.0587 4.95117 12.4754C5.43451 11.9421 5.85534 11.3754 6.21367 10.7754C6.57201 10.1754 6.98451 9.60872 7.45117 9.07539C7.76784 8.72539 8.12318 8.42122 8.5172 8.16289C8.91123 7.90456 9.33922 7.77539 9.80117 7.77539C10.2816 7.77539 10.7267 7.90039 11.1365 8.15039C11.5463 8.40039 11.9012 8.70872 12.2012 9.07539C12.6678 9.60872 13.0762 10.1754 13.4262 10.7754C13.7762 11.3754 14.1845 11.9421 14.6512 12.4754C15.1845 13.0587 15.7345 13.6296 16.3012 14.1879C16.8678 14.7462 17.1512 15.4254 17.1512 16.2254C17.1512 16.8332 16.9637 17.3601 16.5887 17.8062C16.2137 18.2523 15.7345 18.4754 15.1512 18.4754C14.2512 18.4754 13.3595 18.4004 12.4762 18.2504C11.5928 18.1004 10.7012 18.0254 9.80117 18.0254C8.90117 18.0254 8.00951 18.1004 7.12617 18.2504C6.24284 18.4004 5.35117 18.4754 4.45117 18.4754Z" fill="currentColor"/>
</svg>
