<svg width="18" height="18" viewBox="0 0 18 18" fill="currentColor" xmlns="http://www.w3.org/2000/svg">
<path d="M3.68737 14.3137L1.0848 12.9115C0.960663 12.8547 0.891489 12.7593 0.877275 12.6254C0.863061 12.4916 0.903817 12.3768 0.999542 12.2811L1.19248 12.1105C1.24035 12.0627 1.29532 12.0279 1.35739 12.0062C1.41947 11.9845 1.47669 11.9834 1.52903 12.0028L4.02838 12.3753L8.87005 7.5336L0.914288 3.21693C0.757235 3.13616 0.665622 3.00902 0.63945 2.83552C0.613278 2.66201 0.664505 2.51095 0.79313 2.38232L0.950192 2.22526C1.01152 2.16393 1.08743 2.11757 1.17793 2.08616C1.2684 2.05474 1.36375 2.051 1.46396 2.07494L11.7149 4.67526L15.1499 1.23135C15.3757 1.0055 15.6431 0.892578 15.952 0.892578C16.2608 0.892578 16.5282 1.0055 16.7541 1.23135C16.9799 1.4572 17.0928 1.7283 17.0928 2.04466C17.0928 2.361 16.9799 2.6321 16.7541 2.85794L13.3483 6.3086L15.9262 16.5237C15.9501 16.6284 15.949 16.7282 15.9228 16.8232C15.8966 16.9182 15.8454 17.0038 15.7691 17.0801L15.6906 17.1586C15.553 17.2962 15.3866 17.3545 15.1914 17.3336C14.9962 17.3127 14.8485 17.2117 14.7483 17.0307L10.4675 9.15348L5.6707 13.9503L6.0207 16.4586C6.04014 16.5349 6.03416 16.6089 6.00276 16.6807C5.97134 16.7525 5.92946 16.8146 5.87711 16.867L5.7986 16.9455C5.67893 17.0651 5.54282 17.1104 5.39026 17.0812C5.2377 17.052 5.12327 16.9709 5.04697 16.8378L3.68737 14.3137Z" fill="currentColor"/>
</svg>
