<svg width="21" height="18" viewBox="0 0 21 18" fill="currentColor" xmlns="http://www.w3.org/2000/svg">
<path d="M10.4004 16.75C9.78757 16.75 9.29975 16.9167 8.93692 17.25C8.5741 17.5834 7.95167 17.75 7.06962 17.75C6.18757 17.75 5.56513 17.5834 5.20232 17.25C4.8395 16.9167 4.35168 16.75 3.73887 16.75C3.2363 16.75 2.84398 16.8593 2.56192 17.0779C2.27987 17.2965 1.90102 17.4725 1.42539 17.6058C1.22924 17.6597 1.05104 17.6206 0.890791 17.4885C0.730541 17.3565 0.650407 17.184 0.650391 16.9712C0.650391 16.752 0.726349 16.5622 0.878266 16.402C1.03018 16.2417 1.2055 16.1142 1.40422 16.0193C1.70678 15.8757 2.0148 15.7116 2.32827 15.527C2.64172 15.3424 3.11191 15.2501 3.73884 15.2501C4.59524 15.2501 5.20485 15.4167 5.56767 15.7501C5.93048 16.0834 6.43112 16.2501 7.06959 16.2501C7.70806 16.2501 8.2087 16.0834 8.57152 15.7501C8.93435 15.4167 9.54397 15.2501 10.4004 15.2501C11.2568 15.2501 11.8696 15.4167 12.2388 15.7501C12.608 16.0834 13.1119 16.2501 13.7504 16.2501C14.3888 16.2501 14.8863 16.0834 15.2427 15.7501C15.5991 15.4167 16.2055 15.2501 17.0619 15.2501C17.6888 15.2501 18.159 15.3424 18.4725 15.527C18.7859 15.7116 19.0939 15.8757 19.3965 16.0193C19.5952 16.1142 19.7705 16.2417 19.9225 16.402C20.0744 16.5622 20.1503 16.752 20.1503 16.9712C20.1503 17.184 20.0702 17.3565 19.91 17.4885C19.7497 17.6206 19.5715 17.6597 19.3754 17.6058C18.8998 17.4725 18.5209 17.2965 18.2389 17.0779C17.9568 16.8593 17.5645 16.75 17.0619 16.75C16.4491 16.75 15.9645 16.9167 15.6081 17.25C15.2517 17.5834 14.6324 17.75 13.7504 17.75C12.8683 17.75 12.2427 17.5834 11.8735 17.25C11.5042 16.9167 11.0132 16.75 10.4004 16.75ZM10.4004 12.25C9.76706 12.25 9.2818 12.4167 8.94462 12.75C8.60743 13.0834 7.98243 13.25 7.06962 13.25C6.1568 13.25 5.52667 13.0834 5.17924 12.75C4.83181 12.4167 4.35168 12.25 3.73887 12.25C3.2363 12.25 2.84398 12.3593 2.56192 12.5779C2.27987 12.7965 1.90102 12.9725 1.42539 13.1058C1.22924 13.1597 1.05104 13.1206 0.890791 12.9885C0.730541 12.8565 0.650407 12.684 0.650391 12.4712C0.650391 12.252 0.726349 12.0622 0.878266 11.902C1.03018 11.7417 1.2055 11.6142 1.40422 11.5193C1.70678 11.3757 2.0148 11.2116 2.32827 11.027C2.64172 10.8424 3.11191 10.7501 3.73884 10.7501C4.59524 10.7501 5.20742 10.9167 5.57537 11.2501C5.94332 11.5834 6.44139 11.7501 7.06959 11.7501C7.70806 11.7501 8.2087 11.5834 8.57152 11.2501C8.93435 10.9167 9.54397 10.7501 10.4004 10.7501C11.2568 10.7501 11.8664 10.9167 12.2292 11.2501C12.592 11.5834 13.0927 11.7501 13.7311 11.7501C14.3696 11.7501 14.8702 11.5834 15.2331 11.2501C15.5959 10.9167 16.2055 10.7501 17.0619 10.7501C17.6888 10.7501 18.159 10.8424 18.4725 11.027C18.7859 11.2116 19.0939 11.3757 19.3965 11.5193C19.5952 11.6142 19.7705 11.7417 19.9225 11.902C20.0744 12.0622 20.1503 12.252 20.1503 12.4712C20.1503 12.684 20.0702 12.8565 19.91 12.9885C19.7497 13.1206 19.5715 13.1597 19.3754 13.1058C18.8998 12.9725 18.5209 12.7965 18.2389 12.5779C17.9568 12.3593 17.5645 12.25 17.0619 12.25C16.4491 12.25 15.9722 12.4167 15.6312 12.75C15.2901 13.0834 14.6632 13.25 13.7504 13.25C12.8581 13.25 12.2299 13.0834 11.8658 12.75C11.5017 12.4167 11.0132 12.25 10.4004 12.25ZM5.74274 8.28466L9.01964 5.00773L7.75039 3.73848C7.31449 3.3026 6.87251 2.97023 6.42444 2.74138C5.97636 2.51253 5.44975 2.35644 4.84462 2.27311C4.5818 2.22567 4.3536 2.10421 4.16002 1.90871C3.96643 1.71319 3.86964 1.48402 3.86964 1.22121C3.86964 0.94814 3.9674 0.719623 4.16292 0.535657C4.35842 0.351673 4.58757 0.273147 4.85039 0.300081C5.71834 0.383414 6.46449 0.562898 7.08884 0.838531C7.71321 1.11418 8.33244 1.55906 8.94654 2.17316L15.058 8.28466C14.8516 8.42952 14.6472 8.54331 14.4446 8.62601C14.242 8.70869 14.0074 8.75003 13.7408 8.75003C13.2177 8.75003 12.7603 8.58336 12.3687 8.25003C11.977 7.9167 11.3209 7.75003 10.4004 7.75003C9.47987 7.75003 8.82378 7.9167 8.43212 8.25003C8.04045 8.58336 7.58308 8.75003 7.06002 8.75003C6.79335 8.75003 6.55873 8.70869 6.35617 8.62601C6.15362 8.54331 5.94914 8.42952 5.74274 8.28466ZM14.9658 0.346231C15.6081 0.346231 16.1533 0.572831 16.6013 1.02603C17.0494 1.47923 17.2734 2.02186 17.2734 2.65391C17.2734 3.29622 17.0494 3.84142 16.6013 4.28948C16.1533 4.73755 15.6081 4.96158 14.9658 4.96158C14.3235 4.96158 13.7783 4.73755 13.3302 4.28948C12.8821 3.84142 12.6581 3.29622 12.6581 2.65391C12.6581 2.02186 12.8821 1.47923 13.3302 1.02603C13.7783 0.572831 14.3235 0.346231 14.9658 0.346231Z" fill="currentColor"/>
</svg>
