<svg width="25" height="25" viewBox="0 0 25 25" fill="currentColor" xmlns="http://www.w3.org/2000/svg">
<path d="M23.1315 24.0777L14.3636 15.3095C13.6656 15.8858 12.8629 16.3368 11.9555 16.6625C11.0481 16.9883 10.1094 17.1511 9.13942 17.1511C6.75342 17.1511 4.73411 16.3251 3.08148 14.6729C1.42885 13.0207 0.602539 11.0019 0.602539 8.61636C0.602539 6.23107 1.42862 4.21152 3.08078 2.55773C4.73295 0.904172 6.75179 0.0773926 9.13732 0.0773926C11.5226 0.0773926 13.5422 0.903706 15.196 2.55633C16.8495 4.20896 17.6763 6.22827 17.6763 8.61427C17.6763 9.61124 17.509 10.5634 17.1744 11.4708C16.8396 12.3782 16.393 13.1674 15.8346 13.8384L24.6025 22.6063L23.1315 24.0777ZM9.13942 15.0575C10.9382 15.0575 12.4617 14.4332 13.7099 13.1848C14.9584 11.9365 15.5826 10.413 15.5826 8.61427C15.5826 6.81552 14.9584 5.29202 13.7099 4.04377C12.4617 2.79528 10.9382 2.17104 9.13942 2.17104C7.34067 2.17104 5.81717 2.79528 4.56892 4.04377C3.32043 5.29202 2.69619 6.81552 2.69619 8.61427C2.69619 10.413 3.32043 11.9365 4.56892 13.1848C5.81717 14.4332 7.34067 15.0575 9.13942 15.0575Z" fill="currentColor"/>
</svg>
