<svg width="16" height="16" viewBox="0 0 16 16" fill="currentColor" xmlns="http://www.w3.org/2000/svg">
<path d="M7.99961 12.6889L4.10924 15.035C3.96437 15.1196 3.81919 15.1552 3.67369 15.1417C3.52817 15.1283 3.39644 15.0792 3.27849 14.9946C3.16055 14.91 3.06954 14.7994 3.00544 14.6629C2.94132 14.5263 2.93106 14.3754 2.97466 14.21L4.00734 9.79273L0.572738 6.81965C0.444538 6.70812 0.362813 6.57896 0.327563 6.43218C0.292313 6.28538 0.301605 6.14275 0.355438 6.0043C0.409288 5.86584 0.486855 5.75269 0.588138 5.66488C0.689422 5.57706 0.82788 5.51969 1.00351 5.49278L5.53619 5.09663L7.29579 0.925478C7.35989 0.770361 7.457 0.655618 7.58711 0.581252C7.71725 0.506902 7.85475 0.469727 7.99961 0.469727C8.14448 0.469727 8.28198 0.506902 8.41211 0.581252C8.54223 0.655618 8.63934 0.770361 8.70344 0.925478L10.463 5.09663L14.9957 5.49278C15.1713 5.51969 15.3098 5.57706 15.4111 5.66488C15.5124 5.75269 15.5899 5.86584 15.6438 6.0043C15.6976 6.14275 15.7069 6.28538 15.6717 6.43218C15.6364 6.57896 15.5547 6.70812 15.4265 6.81965L11.9919 9.79273L13.0246 14.21C13.0682 14.3754 13.0579 14.5263 12.9938 14.6629C12.9297 14.7994 12.8387 14.91 12.7207 14.9946C12.6028 15.0792 12.4711 15.1283 12.3255 15.1417C12.18 15.1552 12.0349 15.1196 11.89 15.035L7.99961 12.6889Z" fill="currentColor"/>
</svg>
