<svg width="20" height="17" viewBox="0 0 20 17" fill="currentColor" xmlns="http://www.w3.org/2000/svg">
<path d="M18.8917 13.0583L12.1833 1.39167C11.9665 1.00293 11.6498 0.679131 11.266 0.453724C10.8822 0.228317 10.4451 0.109474 10 0.109474C9.55488 0.109474 9.11783 0.228317 8.734 0.453724C8.35018 0.679131 8.03349 1.00293 7.81667 1.39167L1.15 13.0583C0.925662 13.4367 0.805117 13.8675 0.800535 14.3074C0.795954 14.7472 0.907497 15.1804 1.1239 15.5634C1.34031 15.9463 1.65392 16.2654 2.03307 16.4884C2.41222 16.7113 2.84349 16.8303 3.28333 16.8333H16.7167C17.16 16.8377 17.5966 16.7241 17.9816 16.5041C18.3666 16.2841 18.6861 15.9657 18.9075 15.5815C19.1288 15.1973 19.244 14.7612 19.2413 14.3178C19.2385 13.8744 19.1178 13.4397 18.8917 13.0583ZM17.45 14.725C17.377 14.855 17.2704 14.9629 17.1414 15.0377C17.0124 15.1124 16.8657 15.1512 16.7167 15.15H3.28333C3.13426 15.1512 2.98758 15.1124 2.8586 15.0377C2.72961 14.9629 2.62304 14.855 2.55 14.725C2.47686 14.5983 2.43835 14.4546 2.43835 14.3083C2.43835 14.1621 2.47686 14.0183 2.55 13.8917L9.21667 2.225C9.2866 2.0885 9.39284 1.97394 9.5237 1.89395C9.65456 1.81396 9.80496 1.77163 9.95833 1.77163C10.1117 1.77163 10.2621 1.81396 10.393 1.89395C10.5238 1.97394 10.6301 2.0885 10.7 2.225L17.4083 13.8917C17.491 14.0165 17.5385 14.1614 17.5458 14.3109C17.5532 14.4605 17.5201 14.6093 17.45 14.7417V14.725Z" fill="currentColor"/>
<path d="M9.16683 9.74998C9.16683 10.2102 9.53993 10.5833 10.0002 10.5833C10.4604 10.5833 10.8335 10.2102 10.8335 9.74998V6.41664C10.8335 5.95641 10.4604 5.58331 10.0002 5.58331C9.53993 5.58331 9.16683 5.95641 9.16683 6.41664V9.74998Z" fill="currentColor"/>
<path d="M10 13.0833C10.4603 13.0833 10.8334 12.7102 10.8334 12.25C10.8334 11.7897 10.4603 11.4166 10 11.4166C9.53979 11.4166 9.16669 11.7897 9.16669 12.25C9.16669 12.7102 9.53979 13.0833 10 13.0833Z" fill="currentColor"/>
</svg>
