<svg width="18" height="17" viewBox="0 0 18 17" fill="currentColor" xmlns="http://www.w3.org/2000/svg">
<path d="M9.00047 16.7112C8.05432 16.7112 7.24728 16.3773 6.57934 15.7093C5.91141 15.0414 5.57745 14.2343 5.57745 13.2882C5.57745 12.3421 5.91141 11.535 6.57934 10.8671C7.24728 10.1991 8.05432 9.86516 9.00047 9.86516C9.94662 9.86516 10.7537 10.1991 11.4216 10.8671C12.0895 11.535 12.4235 12.3421 12.4235 13.2882C12.4235 14.2343 12.0895 15.0414 11.4216 15.7093C10.7537 16.3773 9.94662 16.7112 9.00047 16.7112ZM9.00252 15.2113C9.53192 15.2113 9.98444 15.0228 10.3601 14.6458C10.7357 14.2688 10.9235 13.8156 10.9235 13.2862C10.9235 12.7567 10.735 12.3042 10.358 11.9286C9.98104 11.553 9.52784 11.3651 8.99842 11.3651C8.46902 11.3651 8.0165 11.5536 7.64087 11.9306C7.26522 12.3076 7.07739 12.7608 7.07739 13.2902C7.07739 13.8196 7.26589 14.2722 7.64289 14.6478C8.01989 15.0234 8.4731 15.2113 9.00252 15.2113ZM9.00047 2.36519C7.58765 2.36519 6.25144 2.60749 4.99184 3.09211C3.73224 3.57673 2.59347 4.24852 1.57552 5.10748C1.39989 5.24595 1.20887 5.31678 1.00247 5.31998C0.796053 5.32318 0.60952 5.25235 0.44287 5.10748C0.28902 4.96262 0.213695 4.78538 0.216895 4.57576C0.220111 4.36616 0.304411 4.19213 0.469795 4.05366C1.60951 3.06906 2.9018 2.2915 4.34667 1.72099C5.79152 1.15049 7.34279 0.865234 9.00047 0.865234C10.6582 0.865234 12.2094 1.15049 13.6543 1.72099C15.0991 2.2915 16.3914 3.07419 17.5311 4.06906C17.6965 4.20751 17.7783 4.37898 17.7763 4.58346C17.7744 4.78794 17.6965 4.96262 17.5427 5.10748C17.376 5.25235 17.1921 5.32318 16.9908 5.31998C16.7895 5.31678 16.6011 5.24595 16.4254 5.10748C15.4075 4.24852 14.2687 3.57673 13.0091 3.09211C11.7495 2.60749 10.4133 2.36519 9.00047 2.36519ZM9.00047 6.86516C8.20817 6.86516 7.46651 6.98375 6.7755 7.22094C6.08446 7.4581 5.44151 7.79977 4.84664 8.24593C4.67101 8.37414 4.47839 8.43727 4.26877 8.43533C4.05917 8.43342 3.8727 8.35588 3.70937 8.20271C3.5586 8.06229 3.48322 7.89172 3.48322 7.69099C3.48322 7.49027 3.56591 7.32719 3.73129 7.20174C4.49796 6.60685 5.31814 6.15204 6.19184 5.83731C7.06556 5.52256 8.00177 5.36519 9.00047 5.36519C9.99917 5.36519 10.9328 5.52256 11.8014 5.83731C12.67 6.15204 13.4876 6.60685 14.2543 7.20174C14.4197 7.32994 14.5049 7.49371 14.51 7.69306C14.5152 7.89241 14.4434 8.06132 14.2946 8.19978C14.1395 8.3549 13.9572 8.43342 13.7475 8.43533C13.5379 8.43727 13.3453 8.37414 13.1697 8.24593C12.5748 7.79977 11.9293 7.4581 11.2331 7.22094C10.537 6.98375 9.79277 6.86516 9.00047 6.86516Z" fill="currentColor"/>
</svg>
